<?xml version="1.0" encoding="UTF-8"?>
<svg version="1.1" viewBox="0 0 1600 1560" width="1280" height="1280" xmlns="http://www.w3.org/2000/svg">
<path transform="translate(680 172)" d="m0 0c1.35-0.00391 1.35-0.00391 2.72-0.0079 0.987 0.00223 1.97 0.00446 2.99 0.00676 1.05-0.00156 2.09-0.00312 3.17-0.00473 3.53-4e-3 7.05-8.23e-4 10.6 0.00232 2.52-0.00135 5.04-0.00313 7.56-0.00531 6.15-0.0041 12.3-0.00348 18.4-5.87e-4 4.99 0.00226 9.99 0.00257 15 0.00148 0.71-1.53e-4 1.42-3.06e-4 2.15-4.64e-4 1.44-3.2e-4 2.88-6.44e-4 4.33-9.73e-4 13.5-0.00285 27.1 4.3e-4 40.6 0.0058 11.6 0.00447 23.2 0.00369 34.9-9.19e-4 13.5-0.00535 27-0.00746 40.4-0.00439 1.44 3.19e-4 2.87 6.33e-4 4.31 9.43e-4 0.707 1.54e-4 1.41 3.09e-4 2.14 4.68e-4 4.99 8.65e-4 9.98-5.98e-4 15-0.00295 6.71-0.00309 13.4-9.06e-4 20.1 0.00489 2.47 0.00133 4.94 9.32e-4 7.41-0.00126 3.36-0.00271 6.71 6.66e-4 10.1 0.00568 0.991-0.00223 1.98-0.00446 3-0.00676 0.892 0.00261 1.78 0.00522 2.7 0.0079 0.776 1.62e-4 1.55 3.25e-4 2.35 4.92e-4 1.76 0.125 1.76 0.125 2.76 1.13 1.43 0.121 2.87 0.18 4.3 0.211 1.33 0.0394 1.33 0.0394 2.69 0.0796 0.95 0.0279 1.9 0.0558 2.88 0.0845 6.81 0.261 13.1 0.668 19.6 2.81 3.02 0.971 6.06 1.6 9.16 2.25 5.51 1.26 10.4 2.96 15.4 5.56 0.83 0.428 1.66 0.856 2.52 1.3 6.32 3.38 6.32 3.38 7.48 5.7h2c0.454 0.619 0.908 1.24 1.38 1.88 1.44 2.21 1.44 2.21 3.53 3.04 2.35 1.21 3.59 2.5 5.29 4.52 0.509 0.597 1.02 1.19 1.54 1.81 1.27 1.75 1.27 1.75 2.27 4.75 0.99 0.33 1.98 0.66 3 1 3.53 3.76 6.67 7.7 7 13h2c10.2 20.8 12.3 40.5 12.2 63.3 1.56e-4 1.88 0.0012 3.76 0.00304 5.64 0.00251 5.11-0.00733 10.2-0.0193 15.3-0.0108 5.54-0.0098 11.1-0.0103 16.6-0.00235 9.58-0.0119 19.2-0.0263 28.7-0.0208 13.9-0.0294 27.8-0.0349 41.7-0.00924 22.6-0.0267 45.2-0.05 67.8-0.00141 1.36-0.00281 2.73-0.00422 4.09-6.98e-4 0.676-0.0014 1.35-0.00211 2.05-0.00353 3.42-0.00705 6.84-0.0106 10.3-0.00105 1.02-0.00105 1.02-0.00212 2.05-0.0161 15.7-0.0298 31.4-0.0425 47.1-5.46e-4 0.672-0.00109 1.34-0.00165 2.04-0.0188 23.2-0.0333 46.3-0.0455 69.5-0.00754 13.8-0.0192 27.7-0.0365 41.5-0.0117 9.51-0.0198 19-0.0253 28.5-0.00329 5.46-0.00821 10.9-0.0178 16.4-0.034 19.9-0.00836 39.7 0.535 59.6 0.0292 1.13 0.0292 1.13 0.0591 2.28 0.0557 2.08 0.119 4.16 0.185 6.24 0.0361 1.16 0.0723 2.33 0.11 3.53 0.0291 2.68 0.0291 2.68 1.2 4.71 0.14 1.5 0.225 3 0.281 4.5 0.0374 0.887 0.0748 1.77 0.113 2.69l0.211 5.62c0.0374 0.887 0.0748 1.77 0.113 2.69 0.0303 0.815 0.0606 1.63 0.0918 2.47 0.072 2.1 0.072 2.1 1.19 4.03 0.316 3.37 0.511 6.75 0.719 10.1-0.0358 2.77-0.0358 2.77 1.28 3.87 0.124 1.15 0.247 2.31 0.375 3.5 0.349 3.07 0.962 5.77 1.99 8.68 1.08 3.15 2.09 6.3 2.99 9.51 5.76 20.3 13.9 39.1 27.6 55.3 1.55 2.29 3.01 4.61 4.47 6.95 1.45 2.15 1.45 2.15 3.65 3.63 1.88 1.42 1.88 1.42 2.88 4.42 0.66 0.33 1.32 0.66 2 1v2h2c1.15 1.15 2.3 2.31 3.43 3.5 2.45 2.34 5.22 4.23 8 6.17 0.519 0.44 1.04 0.879 1.57 1.33v2c1.08 0.373 1.08 0.373 2.19 0.754 3.07 1.36 5.19 3.01 7.75 5.18 3.57 2.94 6.8 5.27 11.1 7.06v2h2v2c0.518 0.0773 1.04 0.155 1.57 0.234 3.45 1.09 6.28 3.08 9.3 5.02 7.12 4.42 14.1 7.2 22.1 9.75 1.63 0.593 3.26 1.19 4.88 1.81l3.12 1.19v2c0.674 0.126 1.35 0.253 2.04 0.383 8.1 1.69 16.2 3.79 23.8 6.89 4.02 1.38 8.2 2.18 12.4 3.07 2.76 0.648 2.76 0.648 4.76 1.65 20.5 4.27 41.7 4.33 62.5 4.26 3.98-0.0108 7.95 7.86e-6 11.9 0.0127 25 0.109 25 0.109 48.5-7.27 1.66-0.678 3.33-1.35 5-2v-2c0.928-0.0928 0.928-0.0928 1.88-0.188 2.4-0.641 2.4-0.641 3.38-3.38 0.248-0.804 0.495-1.61 0.75-2.44h2c3.49-8.44 3.79-16.8 4.18-25.8 0.0594-1.26 0.0594-1.26 0.12-2.54 1.07-22.8 0.943-45.7 0.872-68.6-0.0165-6.14-0.0204-12.3-0.0255-18.4-0.0113-11.6-0.0319-23.1-0.0569-34.7-0.0449-20.8-0.0775-41.6-0.1-62.4-0.0084-7.28-0.0224-14.6-0.041-21.8-0.0106-4.5-0.0172-9-0.0228-13.5-0.00348-2.09-0.0087-4.18-0.0158-6.27-0.0094-2.84-0.0127-5.68-0.0145-8.52-0.00428-0.832-0.00855-1.66-0.013-2.52 0.00327-3.28 0.0761-5.91 1.12-9.04h-2c-0.098-0.978-0.196-1.96-0.297-2.96-1.25-12.6-1.25-12.6-7.7-23v-3h-2v-2h-2v-2c-2.99-1.21-5.99-2.4-9-3.56-0.959-0.373-0.959-0.373-1.94-0.754-4.76-1.58-9.36-1.86-14.4-2-0.725-0.021-1.45-0.042-2.2-0.0636-2.42-0.0673-4.84-0.126-7.26-0.184-1.27-0.032-1.27-0.032-2.57-0.0645-14.6-0.358-29.1-0.435-43.7-0.396-1.52 0.00389-1.52 0.00389-3.08 0.00785-9.4 0.0262-18.8 0.0658-28.2 0.115-5.23 0.027-10.5 0.0439-15.7 0.0549-1.95 0.00611-3.9 0.016-5.85 0.0301-34.3 0.247-34.3 0.247-47.2-9.18-1.03-0.696-1.03-0.696-2.08-1.41-6.93-5.18-11.4-14.2-12.9-22.6-1.09-10.5 1.09-20.7 7.56-29.1 1.12-1.32 2.26-2.61 3.44-3.88 0.525-0.575 1.05-1.15 1.59-1.74 1.41-1.26 1.41-1.26 3.41-1.26v-2h3v-2c1.73-0.819 3.46-1.63 5.19-2.44 0.963-0.452 1.93-0.905 2.92-1.37 4.64-1.91 8.83-2.32 13.8-2.33 1.19-0.00426 2.38-0.00853 3.6-0.0129 1.94 6.8e-4 1.94 6.8e-4 3.93 0.00137 1.39-0.00299 2.77-0.0064 4.16-0.0102 3.76-0.00883 7.52-0.0112 11.3-0.0118 2.36-7.12e-4 4.72-0.00285 7.08-0.0055 8.26-0.00926 16.5-0.0133 24.8-0.0125 7.65 5.97e-4 15.3-0.00988 22.9-0.0257 6.6-0.0132 13.2-0.0184 19.8-0.0178 3.93 2.52e-4 7.85-0.00245 11.8-0.0132 34.2-0.087 34.2-0.087 49.7 2.24 0.33 0.33 0.66 0.66 1 1 1.24 0.103 2.47 0.206 3.75 0.312 9.46 0.976 18.3 4.46 26.8 8.54 2.45 1.15 4.92 2.17 7.44 3.15v2c1.01 0.165 2.02 0.33 3.06 0.5 4.29 1.24 6.25 3.69 8.98 7.09 2.22 2.74 4.6 5.27 7.02 7.84 12.6 13.9 22.4 31.7 23.9 50.6 0.33 0.66 0.66 1.32 1 2 0.0958 1.68 0.127 3.37 0.129 5.05 0.00484 1.61 0.00484 1.61 0.00977 3.26-0.00155 1.19-0.0031 2.38-0.00469 3.61 0.0034 1.89 0.0034 1.89 0.00687 3.82 0.00614 3.51 0.00598 7.01 0.00481 10.5-2.03e-4 3.78 0.00531 7.56 0.0101 11.3 0.00832 7.41 0.0111 14.8 0.0116 22.2 4.75e-4 6.03 0.00253 12.1 0.0057 18.1 0.00882 17.1 0.0134 34.2 0.0127 51.3-5.99e-5 1.38-5.99e-5 1.38-1.21e-4 2.8-6.13e-5 1.39-6.13e-5 1.39-1.24e-4 2.8-4.05e-4 14.9 0.00914 29.9 0.0233 44.8 0.0144 15.4 0.0213 30.7 0.0204 46.1-3.31e-4 8.61 0.00237 17.2 0.0132 25.8 0.00915 7.34 0.0112 14.7 0.00449 22-0.00324 3.74-0.0034 7.48 0.00535 11.2 0.0885 40.4 0.0885 40.4-5 53.1-0.386 1.03-0.386 1.03-0.78 2.08-2.39 6.23-5.29 12.2-8.47 18h-2c-0.144 0.619-0.289 1.24-0.438 1.88-0.562 2.12-0.562 2.12-1.56 4.12h-2c-0.309 0.619-0.619 1.24-0.938 1.88l-2.06 4.12h-2c-0.268 0.639-0.536 1.28-0.812 1.94-1.19 2.06-1.19 2.06-4.19 3.06v2c-6.94 5.96-17.5 13.7-27 13v2c-3.97 1.81-7.69 2.42-12 3l-1 1c-23.7 4.76-47.9 5.38-72 5.32-2.1-0.00502-4.21-0.0065-6.31-0.00745-31.8-0.0309-63.3-1.81-94.7-7.31v-2h-9v-2c-1.09-0.103-2.19-0.206-3.31-0.312-9.02-1.14-17.4-4.18-25.7-7.69-1.77-0.734-3.54-1.46-5.31-2.19-0.78-0.324-1.56-0.647-2.36-0.98-2.42-0.868-4.79-1.39-7.32-1.83v-2h-5v-2h-4v-2c-1.07-0.184-1.07-0.184-2.17-0.371-2.88-0.64-5.42-1.56-8.14-2.69-0.883-0.362-1.77-0.724-2.68-1.1-0.664-0.277-1.33-0.554-2.01-0.84v-2h-4v-2h-3v-2h-4v-2c-1.98-0.66-3.96-1.32-6-2v-2c-0.784-0.309-1.57-0.619-2.38-0.938-2.62-1.06-2.62-1.06-4.62-2.06v-2c-0.763-0.289-1.53-0.578-2.31-0.875-2.69-1.12-2.69-1.12-5.69-3.12v-2c-0.701-0.227-1.4-0.454-2.12-0.688-2.88-1.31-4.95-2.93-7.32-5.01-1.58-1.32-3.2-2.4-4.93-3.49-1.3-0.897-1.3-0.897-2.62-1.81v-2h-2v-2c-0.598-0.289-1.2-0.578-1.81-0.875-2.19-1.12-2.19-1.12-5.19-3.12v-2h-2c-1.2-1.43-2.4-2.87-3.56-4.34-1.47-1.69-3-3.02-4.75-4.41-0.887-0.742-1.77-1.49-2.69-2.25v-2h-2v-2h-2v-2c-0.99-0.33-1.98-0.66-3-1v-2h-2c-4-4.47-4-4.47-4-7h-2c-1.51-1.68-1.51-1.68-3.12-3.88-0.539-0.719-1.08-1.44-1.63-2.18-1.24-1.95-1.24-1.95-1.24-3.95h-2c-1.64-2.24-3.15-4.47-4.62-6.81-0.63-0.964-0.63-0.964-1.27-1.95-3.1-4.86-3.1-4.86-3.1-8.24h-2c-1.34-2.33-2.68-4.66-4-7-0.505-0.892-1.01-1.78-1.53-2.7-2.63-4.72-4.83-9.14-6.47-14.3-0.536-0.701-1.07-1.4-1.62-2.12-1.38-1.88-1.38-1.88-1.38-5.88h-2c-0.326-1.01-0.652-2.03-0.988-3.07-0.441-1.35-0.883-2.7-1.32-4.05-0.213-0.665-0.427-1.33-0.646-2.02-1.37-4.16-3.04-7.95-5.04-11.9-0.35-1.66-0.682-3.33-1-5-0.474-1.2-0.949-2.39-1.44-3.62-1.65-4.2-2.37-8.41-3.04-12.9-0.52-2.48-1.38-4.28-2.53-6.52-0.125-2.75-0.125-2.75 0-5h-1c-0.0856-0.631-0.171-1.26-0.26-1.91-0.388-2.84-0.783-5.68-1.18-8.53-0.135-0.993-0.269-1.99-0.408-3.01-0.198-1.42-0.198-1.42-0.4-2.86-0.12-0.875-0.241-1.75-0.365-2.65-0.188-2.03-0.188-2.03-1.39-3.04-2.19-13.5-2.21-27.5-2.56-41.1-0.0316-1.19-0.0316-1.19-0.0638-2.41-0.453-17.4-0.493-34.8-0.446-52.2 0.0106-4.46 0.0143-8.93 0.0186-13.4 0.0081-7.78 0.0189-15.6 0.0316-23.3 0.0341-21.4 0.0449-42.7 0.0496-64.1 4.31e-4 -1.7 4.31e-4 -1.7 8.72e-4 -3.43 0.0143-62.6-0.246-125-0.514-188-0.0183-4.27-0.0365-8.55-0.0547-12.8-0.148-34.8-0.302-69.5-0.464-104h-1c-0.481-2.21-0.96-4.42-1.44-6.62-0.4-1.84-0.4-1.84-0.809-3.73-0.663-3.21-1.24-6.41-1.75-9.65h-2c-0.464-1.3-0.464-1.3-0.938-2.62-4.05-6.63-11.6-10.5-19.1-12.4-5.65-0.985-11.1-1.14-16.8-1.13-1.46-0.0034-1.46-0.0034-2.95-0.00687-3.26-0.00632-6.52-0.00551-9.77-0.00469-2.34-0.00299-4.68-0.0064-7.02-0.0102-6.35-0.00883-12.7-0.0112-19-0.0118-4.63-8.3e-4 -9.27-0.00373-13.9-0.00684-12.5-0.0083-24.9-0.012-37.4-0.0113-1.06 5.99e-5 -1.06 5.99e-5 -2.14 1.21e-4 -1.06 6.13e-5 -1.06 6.13e-5 -2.15 1.24e-4 -11.5 4.06e-4 -22.9-0.00916-34.4-0.0233-11.8-0.0144-23.6-0.0213-35.4-0.0204-6.62 3.31e-4 -13.2-0.00259-19.8-0.0132-6.22-0.00969-12.4-0.00975-18.7-0.00248-2.28 0.00104-4.56-0.00131-6.84-0.00736-3.12-0.00774-6.24-0.00306-9.36 0.00463-1.34-0.00772-1.34-0.00772-2.72-0.0156-12.5 0.068-23 2.94-32.5 11.3h-2c-0.227 0.639-0.454 1.28-0.688 1.94-1.11 2.6-2.34 4.73-3.81 7.12-4.84 8.64-4.8 18.8-4.77 28.5-0.00784 1.63-0.00784 1.63-0.0158 3.29-0.0102 2.33-0.016 4.67-0.0179 7-0.0037 3.71-0.0205 7.42-0.0408 11.1-0.0551 10.5-0.086 21.1-0.111 31.6-0.016 6.47-0.0463 12.9-0.0848 19.4-0.0115 2.45-0.0176 4.89-0.0177 7.34-0.00201 35.4-0.00201 35.4-5.44 44.6h-2c-0.268 0.804-0.536 1.61-0.812 2.44-0.392 0.846-0.784 1.69-1.19 2.56-0.99 0.33-1.98 0.66-3 1-0.268 0.598-0.536 1.2-0.812 1.81-2.07 3.81-5.27 5.57-9.35 6.88-13.6 3.14-26.3 1.87-38.4-5.04-3.3-2.22-5.28-4.34-7.46-7.66v-2h-2c-0.29-0.831-0.29-0.831-0.586-1.68-0.26-0.724-0.521-1.45-0.789-2.2-0.383-1.08-0.383-1.08-0.773-2.18-0.79-2.13-0.79-2.13-2.85-3.95-1.65-9.34-1.32-19.2-1.55-28.7-0.0209-0.806-0.0419-1.61-0.0634-2.44-0.52-20.5-0.535-40.9-0.512-61.4 0.00584-5.32 0.00231-10.6-0.00357-16-0.00359-4.14-0.00248-8.28 1.28e-4 -12.4 6.66e-4 -1.97-1.48e-4 -3.93-0.00248-5.9-0.00252-2.71 0.0013-5.41 0.0069-8.12-0.00202-0.806-0.00405-1.61-0.00613-2.44 0.0212-5.49 0.0212-5.49 1.14-6.6 0.191-1.45 0.323-2.91 0.43-4.38 0.0735-0.904 0.147-1.81 0.223-2.74 0.146-1.89 0.287-3.79 0.422-5.68 0.512-6.15 1.73-11.5 3.93-17.2 0.376-1.09 0.753-2.18 1.14-3.3 2.82-7.65 6.09-15 10.9-21.7h2c0.241-0.722 0.482-1.44 0.73-2.19 1.44-3.2 3.19-5.24 5.58-7.81 0.812-0.874 1.62-1.75 2.46-2.65 0.735-0.776 1.47-1.55 2.23-2.35 0.804-0.866 1.61-1.73 2.44-2.62 17.7-16.5 40.6-22.9 64.3-24.1 3.7-0.282 6.85-1.37 10.6-1.37zm-104 77.1 1 2zm-3 22 1 2zm0 23v11h1v-11h-1zm0 40 1 3zm1 64 1 4zm777 258 1 3zm-390 73 1 2zm5 72 1 2zm387 91 1 2z" fill="#FBFCFE"/>
<path transform="translate(358 546)" d="m0 0c10.1-0.1 20.2 0.201 30.3 0.968 1.24 0.087 2.49 0.174 3.77 0.264 16.4 1.19 16.4 1.19 18 2.8 2.02 0.234 4.04 0.413 6.06 0.562 1.1 0.0838 2.21 0.168 3.35 0.254 0.855 0.0606 1.71 0.121 2.59 0.184v2c0.568-0.0232 1.14-0.0464 1.72-0.0703 0.772-0.018 1.54-0.0361 2.34-0.0547 0.754-0.0232 1.51-0.0464 2.29-0.0703 3.39 0.249 6.43 1.18 9.65 2.2 0.801 0.244 1.6 0.489 2.43 0.74 9.88 3.03 19.7 6.05 29.1 10.2 2.21 0.941 4.38 1.67 6.68 2.35 5.34 1.68 10.2 4.33 15.2 6.91 3.73 1.97 3.73 1.97 7.71 3.3 2.35 0.609 3.22 1.75 4.87 3.48 0.99 0.33 1.98 0.66 3 1v2c1.98 0.66 3.96 1.32 6 2v2c0.516 0.0825 1.03 0.165 1.56 0.25 3.48 1.07 6.31 2.89 9.44 4.75v2h3v2h3c1.56 1.44 1.56 1.44 3 3 0.66 0.33 1.32 0.66 2 1v2c0.887 0.227 1.77 0.454 2.69 0.688 3.75 1.49 5.57 3.42 8.31 6.31h2v2h2v2h2c1.3 1.39 1.3 1.39 2.75 3.25 2.79 3.39 5.55 5.43 9.25 7.75 0.33 0.66 0.66 1.32 1 2 0.66 0.33 1.32 0.66 2 1 1.42 1.51 2.82 3.06 4.19 4.62 2.68 3.03 5.37 5.97 8.31 8.75 3.89 3.82 7 8.16 10.2 12.5 2.83 3.81 5.82 7.47 8.86 11.1 1.43 1.96 1.43 1.96 1.43 3.96h2c2.46 3.46 4.56 7.16 6.71 10.8 1.07 1.82 2.16 3.63 3.26 5.44 4.03 6.76 7.33 13.4 9.97 20.9 1.06 2.88 2.29 5.61 3.62 8.38 2.31 4.96 3.94 10 5.45 15.3 0.975 3.34 0.975 3.34 2.45 6.89 2.02 5.28 3.05 10.8 4.17 16.3 0.426 2.07 0.856 4.14 1.29 6.21 0.185 0.907 0.37 1.81 0.561 2.75 0.327 2.07 0.327 2.07 1.52 3.1 0.352 2.38 0.662 4.74 0.938 7.12 0.456 3.87 0.926 7.44 2.09 11.2 1.31 5.01 1.39 9.87 1.53 15 0.0598 1.98 0.123 3.95 0.191 5.93 0.0239 0.867 0.0479 1.73 0.0725 2.63 0.0441 2.19 0.0441 2.19 1.17 4.14 0.0957 2.51 0.13 4.99 0.12 7.5 8.54e-4 0.787 0.00171 1.57 0.00259 2.38 0.00166 2.66-0.00388 5.33-0.00932 7.99-2.8e-4 1.92-1.18e-4 3.84 4.51e-4 5.75 2.97e-4 5.29-0.00566 10.6-0.0126 15.9-0.00635 5.7-0.00694 11.4-0.00818 17.1-0.00289 9.88-0.00934 19.8-0.0181 29.7-0.0125 14.3-0.0186 28.6-0.0229 42.9-0.00203 6.65-0.00433 13.3-0.00674 20-2.41e-4 0.666-4.82e-4 1.33-7.3e-4 2.02-0.00581 15.9-0.0148 31.7-0.0242 47.6-6.2e-4 1.04-6.2e-4 1.04-0.00125 2.1-0.00672 11.3-0.0136 22.5-0.0206 33.8-0.00649 10.6-0.0129 21.1-0.0192 31.7-4.15e-4 0.694-8.29e-4 1.39-0.00126 2.1-0.00944 15.8-0.018 31.7-0.0237 47.5-3.61e-4 0.998-3.61e-4 0.998-7.3e-4 2.02-0.00262 7.29-5e-3 14.6-0.0072 21.9-0.00449 14.3-0.0126 28.5-0.0251 42.8-0.0084 9.77-0.0133 19.5-0.0154 29.3-0.00135 5.64-0.00439 11.3-0.0118 16.9-0.00671 5.16-0.00889 10.3-0.00736 15.5-2.73e-4 1.87-0.00227 3.75-0.00609 5.62-0.00493 2.53-0.0038 5.06-0.00105 7.59-0.00291 0.74-0.00583 1.48-0.00883 2.24-0.0477 3.75-0.0477 3.75 1.13 7.26 0.186 1.8 0.321 3.61 0.43 5.42 0.0735 1.09 0.147 2.18 0.223 3.3 0.147 2.29 0.288 4.58 0.422 6.88 0.646 9.86 0.646 9.86 5.55 18.2 0.681 0.588 0.681 0.588 1.38 1.19 0.33 0.66 0.66 1.32 1 2h2v2c0.722 0.247 1.44 0.495 2.19 0.75 2.81 1.25 2.81 1.25 4.94 3.12 15.7 11.6 41.9 7.17 60.6 7.15 1.43-8.88e-4 1.43-8.88e-4 2.89-0.00179 6.33-0.00403 12.7-0.0109 19-0.0186 5.38-0.00634 10.8-0.01 16.1-0.0133 21.3-0.0141 42.6-0.0529 63.9-0.126 10.4-0.0349 20.8-0.06 31.1-0.0635 9.19-0.00304 18.4-0.0235 27.6-0.065 4.83-0.0212 9.65-0.034 14.5-0.0256 4.51 0.00756 9.01-0.00837 13.5-0.0419 1.64-0.00819 3.28-0.00804 4.92 0.00146 9.92 0.0517 17.7-1.13 26.7-5.67 0.99-0.33 1.98-0.66 3-1v-2h2v-2h2v-2h2c0.66-1.98 1.32-3.96 2-6h2c0.133-1.13 0.266-2.26 0.402-3.43 0.178-1.48 0.357-2.96 0.535-4.45 0.087-0.746 0.174-1.49 0.264-2.26 0.686-5.64 0.686-5.64 1.8-7.86 0.0981-1.59 0.133-3.18 0.138-4.77 0.00818-1.51 0.00818-1.51 0.0165-3.05 0.00104-1.11 0.00208-2.22 0.00316-3.36 0.00762-1.75 0.00762-1.75 0.0154-3.53 0.0135-3.2 0.0229-6.41 0.0314-9.61 0.0107-3.36 0.0293-6.72 0.0478-10.1 0.0619-11.4 0.116-22.9 0.149-34.3 0.0184-6.32 0.0474-12.6 0.088-18.9 0.021-3.34 0.0348-6.68 0.0388-10 0.00492-3.73 0.0281-7.47 0.0553-11.2-0.00301-1.1-0.00601-2.19-0.00911-3.32 0.0697-6.46 0.941-11.8 3.43-17.8h2v-4h2v-2h2v-3h2v-2h2v-2h2v-2h3v-2c1.25-0.651 2.5-1.3 3.75-1.94l2.11-1.09c8.87-4.03 20.7-2.76 29.8 0.109 8.36 3.23 8.36 3.23 10.7 7.11 0.227 0.598 0.454 1.2 0.688 1.81 0.66 0.33 1.32 0.66 2 1 0.7 1.32 1.36 2.65 2 4 0.486 0.752 0.972 1.5 1.47 2.28 3.77 6.31 5.01 11.5 5.21 18.7 0.0337 0.9 0.0673 1.8 0.102 2.73 0.414 12.8 0.274 25.7 0.177 38.6-0.0218 2.97-0.0403 5.93-0.0589 8.9-0.0441 6.99-0.0943 14-0.148 21-0.0554 7.18-0.0993 14.4-0.138 21.5-0.0338 6.21-0.0752 12.4-0.122 18.6-0.0279 3.69-0.053 7.38-0.0707 11.1-0.02 4.11-0.0555 8.21-0.0925 12.3-0.0056 1.8-0.0056 1.8-0.0113 3.64-0.0759 6.78-0.719 13-2.32 19.6-0.246 1.11-0.492 2.21-0.746 3.36-1.34 5.48-2.82 10.5-5.25 15.6h-2c-0.103 0.536-0.206 1.07-0.312 1.62-0.868 3-2.24 5.61-3.69 8.38h-2c-0.124 0.598-0.247 1.2-0.375 1.81-0.625 2.19-0.625 2.19-2.62 5.19h-2v2h-2c-0.0619 0.557-0.124 1.11-0.188 1.69-1.16 3.3-3.21 5.03-5.81 7.31h-2v2c-1.65 0.66-3.3 1.32-5 2v2h-2v2c-3 2-3 2-6 2v2c-1.41 0.508-2.83 1.01-4.25 1.5-0.789 0.278-1.58 0.557-2.39 0.844-2.36 0.656-2.36 0.656-6.36 0.656v2c-4.33 1.53-8.62 2.63-13.1 3.56-4.37 0.876-4.37 0.876-8.7 1.95-13.7 3.1-29.1 1.64-43 1.64-3.48-2.06e-4 -6.96 0.00534-10.4 0.0101-6.8 0.00826-13.6 0.0111-20.4 0.0116-5.53 4.77e-4 -11.1 0.00254-16.6 0.0057-15.7 0.00879-31.4 0.0134-47.1 0.0127-0.843-4e-5 -1.69-7.99e-5 -2.56-1.21e-4 -0.844-4.09e-5 -1.69-8.18e-5 -2.56-1.24e-4 -13.7-4.07e-4 -27.4 0.00918-41.1 0.0233-14.1 0.0144-28.2 0.0213-42.3 0.0204-7.91-3.32e-4 -15.8 0.0024-23.7 0.0132-6.72 0.00911-13.4 0.0113-20.2 0.00449-3.43-0.00326-6.86-0.00334-10.3 0.00535-3.72 0.00771-7.44 0.00308-11.2-0.00463-1.08 0.00514-2.15 0.0103-3.26 0.0156-6.13-0.0281-11.7-0.66-17.6-2.26-1.35-0.336-2.69-0.672-4.04-1.01-14-3.8-28.6-9.36-39-20v-2h-2v-2h-2v-2h-2v-2h-2v-2h-2c-1.29-1.46-1.29-1.46-2.62-3.38-0.446-0.626-0.892-1.25-1.35-1.9-1.02-1.73-1.02-1.73-1.02-3.73h-2v-4h-2v-3h-2c-0.242-0.641-0.485-1.28-0.734-1.94-1.61-4.16-3.18-8.1-5.58-11.9-1.69-3.19-1.69-3.19-1.44-6.12 0.247-0.681 0.495-1.36 0.75-2.06h-2c-0.33-2.31-0.66-4.62-1-7h-1c-0.82-5-1.14-9.83-1.11-14.9 5.45e-4 -0.771 0.00109-1.54 0.00165-2.34 0.00292-2.59 0.0129-5.18 0.0227-7.77 0.00318-1.89 0.00582-3.78 0.00799-5.66 0.00546-4.13 0.0137-8.26 0.024-12.4 0.0282-11.7 0.0339-23.3 0.042-35 0.00101-1.26 0.00202-2.52 0.00307-3.81 0.0255-33.2-0.0731-66.4-0.178-99.5-0.00495-1.57-0.0099-3.13-0.0148-4.7-0.0582-18.4-0.119-36.8-0.182-55.1-0.0414-12.2-0.08-24.3-0.117-36.5-0.243-88.7-0.243-88.7-0.945-177-0.0298-2.78-0.0586-5.56-0.0872-8.35-0.168-16.1-0.384-32.1-0.941-48.2-0.0372-1.12-0.0745-2.24-0.113-3.39-0.0588-1.52-0.0588-1.52-0.119-3.06-0.05-1.31-0.05-1.31-0.101-2.65-0.126-2.39-0.126-2.39-1.2-5.22-0.129-1.94-0.229-3.87-0.312-5.81-0.436-6.3-1.86-11.9-3.7-17.9-1.78-5.84-2.99-11.1-2.99-17.2-0.66-0.99-1.32-1.98-2-3-2-3.57-2.69-6.99-3.44-11-0.441-2.23-0.441-2.23-2.56-4.02-0.703-1.87-1.4-3.75-2.07-5.64-1.39-3.52-3.16-6.82-4.94-10.2-0.988-2.2-0.988-2.2-0.988-5.2h-2c-0.268-0.969-0.536-1.94-0.812-2.94-0.392-1.01-0.784-2.02-1.19-3.06-0.99-0.33-1.98-0.66-3-1-0.33-1.65-0.66-3.3-1-5h-2c-3-4.38-3-4.38-3-7h-2c-2-3-2-3-2-6h-2v-2h-2v-2h-2c-2.62-2.37-2.62-2.37-5-5v-2h-2v-2h-2v-2c-0.619-0.309-1.24-0.619-1.88-0.938l-4.12-2.06v-2c-1.65-0.66-3.3-1.32-5-2v-2c-1.65-0.66-3.3-1.32-5-2v-2h-3v-2h-2v-2c-0.516-0.0825-1.03-0.165-1.56-0.25-3.48-1.07-6.31-2.89-9.44-4.75v-2c-0.516-0.103-1.03-0.206-1.56-0.312-3.3-0.93-6.3-2.3-9.44-3.69v-2c-0.58-0.128-1.16-0.257-1.76-0.389-2.21-0.602-4.08-1.39-6.14-2.39-0.727-0.349-1.45-0.697-2.2-1.06-0.75-0.364-1.5-0.728-2.27-1.1-4.81-2.33-9.49-4.51-14.6-6.06v-2c-1.08-0.2-1.08-0.2-2.19-0.405-2.68-0.567-5.23-1.29-7.84-2.12-1.43-0.446-1.43-0.446-2.88-0.902-1-0.313-2-0.627-3.03-0.95-12.6-3.88-25-6.65-38.1-8.2-2.98-0.43-2.98-0.43-4.98-1.43-1.35-0.139-2.71-0.225-4.07-0.281-0.815-0.0374-1.63-0.0748-2.47-0.113-0.853-0.0348-1.71-0.0696-2.59-0.105-1.67-0.07-3.34-0.143-5.01-0.219-0.741-0.0303-1.48-0.0606-2.25-0.0918-2.14-0.154-4.26-0.412-6.38-0.7-4.31-0.553-8.54-0.628-12.9-0.594-0.816 0.00369-1.63 0.00738-2.47 0.0112-8.96 0.0647-17.9 0.307-26.9 0.674-1.85 0.072-3.71 0.135-5.56 0.188-13.1 0.383-26.7 0.856-37.5 9.23h-2v2c-1.88 2.12-1.88 2.12-4 4h-2c-0.402 1.3-0.402 1.3-0.812 2.62-1.19 3.38-1.19 3.38-2.69 6.07-1.75 3.86-2.27 7.45-2.65 11.6-0.0791 0.789-0.158 1.58-0.24 2.39-0.769 8.12-1.07 16.2-1.24 24.4-0.0187 0.795-0.0374 1.59-0.0566 2.41-0.494 21.2-0.387 42.4-0.281 63.6 0.0219 4.5 0.0404 8.99 0.0589 13.5 0.044 10.6 0.0942 21.2 0.148 31.8 0.0554 10.9 0.0993 21.8 0.138 32.6 0.0338 9.43 0.0752 18.9 0.122 28.3 0.0279 5.59 0.053 11.2 0.0707 16.8 0.0168 5.24 0.0431 10.5 0.0763 15.7 0.0106 1.91 0.0179 3.82 0.0217 5.73-1.17 20.8-1.17 20.8 5.83 38.9 1.69 1.69 2.53 3.34 3.5 5.5h2v2h2v2c1.32 0.33 2.64 0.66 4 1v2c0.577 0.124 1.15 0.247 1.75 0.375 2.25 0.625 2.25 0.625 4.06 1.56 7.36 3.58 14.5 3.34 22.5 3.32 1.35 0.00275 2.7 0.00644 4.05 0.011 2.9 0.00808 5.79 0.0103 8.69 0.00805 4.59-0.00285 9.18 0.0116 13.8 0.029 13.1 0.0469 26.1 0.0709 39.2 0.0775 7.22 0.00377 14.4 0.0219 21.6 0.0551 4.55 0.0201 9.1 0.0227 13.7 0.0117 2.85-0.00263 5.7 0.0115 8.55 0.0301 1.92 0.00775 3.85-0.00402 5.77-0.0167 9.4 0.088 20 1.07 27.4 7.54 0.33 0.66 0.66 1.32 1 2h2v2c0.639 0.289 1.28 0.577 1.94 0.875 2.5 1.36 2.77 2.54 4 5.02 0.671 1.33 1.36 2.66 2.06 3.97 5.08 9.6 6.31 19.1 4.31 29.8-1.72 4.34-3.93 8.3-6.31 12.3h-2c-0.66 1.65-1.32 3.3-2 5h-3v2h-2v2c-19.4 9.81-46 7.17-67.2 7.2-1.09 0.00283-2.18 0.00565-3.3 0.00857-5.78 0.0149-11.6 0.0242-17.3 0.0285-4.7 0.00436-9.39 0.0182-14.1 0.041-84.4 0.402-84.4 0.402-109-12.3-1.39-0.617-2.79-1.22-4.19-1.81-0.928-0.392-1.86-0.784-2.81-1.19v-2c-1.18-0.464-1.18-0.464-2.38-0.938-2.62-1.06-2.62-1.06-4.62-2.06v-2h-2v-2h-3c-4.68-4.27-8.52-9.73-12-15v-2h-2c-4-5.29-4-5.29-4-9h-2v-4h-2c-0.254-0.641-0.508-1.28-0.77-1.94-0.344-0.865-0.688-1.73-1.04-2.62-0.545-1.37-0.545-1.37-1.1-2.77-0.881-2.16-1.81-4.29-2.77-6.42-1.27-3.14-1.78-5.93-2.31-9.25-0.99-1.49-0.99-1.49-2-3-2.07-8.17-2.29-16.4-2.25-24.8-0.00312-1.23-0.00624-2.46-0.00945-3.73-0.00655-3.38-0.00426-6.77 0.00197-10.2 0.00455-3.66-0.00247-7.33-0.00796-11-0.00887-7.16-0.00698-14.3-0.00117-21.5 0.00453-5.83 0.00512-11.7 0.00295-17.5-3.06e-4 -0.832-6.13e-4 -1.66-9.29e-4 -2.52-6.4e-4 -1.69-0.00129-3.38-0.00195-5.07-0.0057-15.8 8.41e-4 -31.7 0.0116-47.5 0.00893-13.5 0.00739-27.1-0.00184-40.6-0.0107-15.8-0.0149-31.5-0.00878-47.3 6.37e-4 -1.68 0.00127-3.37 0.00189-5.05 4.63e-4 -1.24 4.63e-4 -1.24 9.35e-4 -2.51 0.00172-5.81-0.00117-11.6-0.00589-17.4-0.00564-7.1-0.00403-14.2 0.00656-21.3 0.00522-3.61 0.00738-7.23 7.02e-4 -10.8-0.0634-37.7-0.0634-37.7 5.27-49.2 0.631-1.6 1.26-3.21 1.88-4.81 4.81-12 11.2-23.7 20.1-33.2h2c0.237-0.583 0.474-1.17 0.719-1.77 1.55-2.71 3.3-4.1 5.78-5.98 0.794-0.614 1.59-1.23 2.41-1.86 2.09-1.39 2.09-1.39 4.09-1.39v-2c2.41-1.18 4.83-2.34 7.25-3.5 1.02-0.501 1.02-0.501 2.07-1.01 3.54-1.68 5.7-2.49 9.68-2.49v-2c7.38-2.45 14.2-4.35 22-5 0.33-0.33 0.66-0.66 1-1 17.3-2.89 35.3-2.41 52.7-2.6 3.47-0.0403 6.94-0.0915 10.4-0.141 8.57-0.12 17.1-0.198 25.7-0.288zm214 290v87h1v-87h-1zm-385 107 1 2zm776 351 1 2z" fill="#FBFCFE"/>
<path transform="translate(1037,570)" d="m0 0h1v72h-1v-72z" fill="#000102"/>
<path transform="translate(1037,654)" d="m0 0h1v69h-1v-69z" fill="#000102"/>
<path transform="translate(647,825)" d="m0 0h1v60h-1v-60z" fill="#000102"/>
<path transform="translate(647,1222)" d="m0 0h1v55h-1v-55z" fill="#000102"/>
<path transform="translate(959,537)" d="m0 0h1v43h-1v-43z" fill="#FCFDFF"/>
<path transform="translate(571,1218)" d="m0 0h1v37h-1v-37z" fill="#FCFDFF"/>
<path transform="translate(260,707)" d="m0 0h1v20h-1v-20z" fill="#000102"/>
<path transform="translate(1040,1189)" d="m0 0h1v12h-1v-12z" fill="#000102"/>
<path transform="translate(1038,750)" d="m0 0h1v8h-1v-8z" fill="#000102"/>
<path transform="translate(262,917)" d="m0 0h1v7h-1v-7z" fill="#000102"/>
<path transform="translate(643,776)" d="m0 0h1v5h-1v-5z" fill="#000102"/>
<path transform="translate(1183,626)" d="m0 0 4 1z" fill="#000102"/>
<path transform="translate(930,252)" d="m0 0 2 1z" fill="#000102"/>
</svg>
