<svg version="1.1" id="Layer_1" xmlns="http://www.w3.org/2000/svg" xmlns:xlink="http://www.w3.org/1999/xlink" x="0px" y="0px"
	 width="100%" viewBox="0 0 696 250" xml:space="preserve">
<path fill="none" opacity="1.000000" stroke="none"
	d="
M437.000000,251.000000
	C291.333344,251.000000 146.166672,251.000000 1.000000,251.000000
	C1.000000,167.666672 1.000000,84.333336 1.000000,1.000000
	C233.000000,1.000000 465.000000,1.000000 697.000000,1.000000
	C697.000000,84.333336 697.000000,167.666672 697.000000,251.000000
	C610.500000,251.000000 524.000000,251.000000 437.000000,251.000000
M586.534180,43.203854
	C575.010071,43.145096 563.485901,43.058582 551.961914,43.075996
	C550.951599,43.077522 549.942261,43.760612 548.236633,44.300362
	C543.101807,45.167084 540.035583,48.947388 539.580322,53.345646
	C538.777588,61.101601 539.057373,69.014931 539.563171,76.818367
	C539.652039,78.190193 543.136414,80.425789 544.909973,80.296967
	C546.651550,80.170479 549.252197,77.765404 549.640991,75.964211
	C550.535767,71.818878 550.517212,67.432365 550.503540,63.144894
	C550.480408,55.902283 552.023071,54.459469 559.208313,54.851345
	C566.784973,55.264568 574.378662,55.519489 581.965820,55.541721
	C589.911865,55.565002 590.343628,55.830219 590.358459,63.787777
	C590.395996,83.943291 590.119751,104.106010 590.581787,124.251793
	C590.893555,137.847260 598.141174,148.012772 609.647827,154.549606
	C618.826782,159.764114 629.308228,160.508698 639.700989,159.466110
	C648.279236,158.605545 653.481628,153.607864 653.537781,146.737778
	C653.648010,133.245468 653.669983,119.751198 653.569153,106.258934
	C653.522217,99.977798 650.053223,95.222290 643.886597,94.424637
	C636.692017,93.494034 629.350098,93.632324 622.068481,93.469810
	C617.357300,93.364670 613.922546,96.088692 614.562988,99.776360
	C615.206970,103.484505 617.870239,105.628494 621.882263,105.617630
	C626.703430,105.604576 631.524780,105.582001 636.345764,105.606438
	C640.928284,105.629662 643.098816,107.937637 642.968994,112.441650
	C642.744385,120.234589 642.487427,128.028061 642.397827,135.823074
	C642.253601,148.376755 641.475037,149.579208 628.818298,148.063980
	C615.005798,146.410385 606.208557,141.351334 603.054688,128.591721
	C601.819092,123.593033 601.926819,118.197502 601.889099,112.979340
	C601.758972,94.954483 601.978699,76.926529 601.777039,58.902985
	C601.655884,48.069183 598.045410,44.632469 586.534180,43.203854
M40.571095,159.499939
	C40.571095,170.047501 40.571095,180.595062 40.571095,190.824081
	C43.675911,190.824081 45.805088,190.829620 47.934231,190.823227
	C68.912277,190.760193 89.893578,190.886902 110.866684,190.531128
	C118.649391,190.399094 126.301422,188.868820 132.877487,184.020401
	C141.426331,177.717468 146.593414,169.794861 147.470901,158.813873
	C148.304031,148.388046 146.678146,139.007828 139.719681,131.004013
	C137.854385,128.858490 135.411972,127.214714 133.124771,125.246185
	C148.866287,113.943665 149.725861,101.209648 146.247162,85.621078
	C143.220123,72.056503 128.569016,61.562767 113.210884,61.156151
	C99.406494,60.790668 85.594688,60.669235 71.785210,60.544716
	C61.508862,60.452053 51.230999,60.526463 40.571186,60.526463
	C40.571186,93.593658 40.571186,126.046806 40.571095,159.499939
M455.470001,157.532013
	C455.470001,136.353119 455.470001,115.174217 455.470001,94.139259
	C446.603668,94.139259 438.496674,94.125084 430.389893,94.156288
	C429.313599,94.160423 427.496460,94.075539 427.281403,94.574501
	C425.763031,98.097397 423.385376,96.561401 421.117950,95.900833
	C402.920807,90.599464 386.150726,93.002663 371.450745,105.489311
	C357.617584,117.239685 351.276886,132.248459 354.626221,150.218307
	C358.085358,168.777283 369.420258,181.651733 387.033569,188.127319
	C398.615448,192.385406 410.695374,192.045959 422.551758,187.993225
	C423.962189,187.511124 427.061798,187.871033 427.176971,188.359589
	C427.969696,191.722458 430.621521,191.137817 432.680450,191.160919
	C438.606812,191.227432 444.621399,190.313507 450.439636,191.054535
	C455.499054,191.698914 455.542084,189.357620 455.524323,185.848389
	C455.478210,176.738815 455.538208,167.628708 455.470001,157.532013
M260.619415,144.353271
	C261.404999,115.951813 238.428375,94.669594 211.209183,93.965591
	C187.636093,93.355881 162.347626,112.139442 160.818924,139.150818
	C159.666550,159.512756 169.499649,175.249924 183.840378,183.471695
	C201.975464,193.868851 221.016235,193.367462 238.920151,181.952515
	C247.679596,176.367798 253.710800,168.168930 257.755829,158.147293
	C247.894241,158.147293 238.564957,158.107468 229.236908,158.195541
	C228.011932,158.207108 226.577499,158.578156 225.607910,159.286316
	C220.772507,162.817947 215.515121,164.695419 209.454056,164.700470
	C202.405289,164.706345 193.807129,159.398071 191.982498,153.015961
	C193.857330,152.895920 195.607529,152.688828 197.357971,152.686615
	C213.190887,152.666580 229.023880,152.671021 244.856796,152.696289
	C248.512573,152.702133 252.305420,152.232071 255.783463,153.050644
	C258.965759,153.799591 259.690399,152.700623 260.016571,150.163788
	C260.226746,148.529251 260.387604,146.888367 260.619415,144.353271
M319.856049,78.262276
	C319.856049,72.316978 319.856049,66.371674 319.856049,60.098846
	C310.605865,60.098846 301.847076,60.098846 292.632263,60.098846
	C292.632263,71.446777 292.632263,82.204628 292.632263,93.838867
	C283.232391,93.838867 274.274475,93.838867 266.089386,93.838867
	C265.745575,99.703857 265.257599,104.630989 265.213074,109.562126
	C265.141174,117.517967 265.264496,117.504692 273.723877,117.470406
	C279.832245,117.445648 285.940796,117.465576 292.663757,117.465576
	C292.663757,142.331924 292.663757,166.675125 292.663757,190.472992
	C298.518951,190.954803 303.704895,191.581192 308.904724,191.734192
	C312.004425,191.825394 315.157745,191.338608 318.217529,190.750412
	C319.089447,190.582794 320.317017,189.177582 320.357971,188.292572
	C320.570312,183.701553 320.496460,179.094650 320.439331,174.494324
	C320.268005,160.694595 320.038910,146.895584 319.873199,133.095795
	C319.811554,127.961082 319.863220,122.825020 319.863220,117.107071
	C329.656677,117.107071 338.003174,117.107071 346.415558,117.107071
	C346.415558,109.059837 346.415558,101.655884 346.415558,94.385544
	C338.907013,94.017952 331.581421,92.796509 324.490997,93.614235
	C319.730194,94.163292 319.842468,92.406136 319.849915,89.291260
	C319.857941,85.926834 319.853912,82.562378 319.856049,78.262276
M553.049500,209.519043
	C564.859802,209.547058 576.672424,209.726990 588.479492,209.544922
	C595.332214,209.439240 601.327820,203.969879 601.818604,197.245544
	C602.268616,191.079178 601.815369,184.852310 602.010742,178.660004
	C602.135986,174.690964 600.481995,172.918549 596.564758,172.963058
	C592.637756,173.007721 590.915222,174.858505 591.056519,178.812836
	C591.211060,183.137268 591.228394,187.478271 591.035217,191.799957
	C590.866028,195.584824 589.312561,197.671875 584.816956,197.560501
	C575.380371,197.326706 565.927734,197.834061 556.482239,197.812042
	C552.958496,197.803818 550.208984,196.902786 550.371643,192.075546
	C550.615967,184.827301 549.963257,177.553711 549.893372,170.288956
	C549.756592,156.086990 550.316772,141.853607 549.552490,127.689110
	C548.730896,112.460945 539.959717,102.428894 526.278381,96.216278
	C517.359436,92.166245 508.011444,93.427361 498.807037,93.581726
	C493.119537,93.677109 487.535522,99.716171 487.463440,105.172203
	C487.283020,118.825356 487.249725,132.483963 487.431366,146.136734
	C487.507874,151.888000 490.255493,157.204544 495.924103,158.158844
	C503.744446,159.475418 511.873444,159.233337 519.863892,159.136749
	C523.324463,159.094894 526.039795,156.574509 525.420166,152.876541
	C524.833069,149.372620 522.207764,147.316177 518.263123,147.412857
	C513.774780,147.522842 509.269653,147.213394 504.793182,147.465347
	C500.223877,147.722504 498.470947,145.764587 498.538422,141.333374
	C498.665192,133.008713 498.582886,124.680664 498.565094,116.354073
	C498.539948,104.596924 498.535492,104.449028 510.199493,104.783150
	C527.033325,105.265373 538.867188,115.916702 538.489197,133.421463
	C538.072510,152.717117 538.083557,172.036270 538.535461,191.330505
	C538.770020,201.346848 538.944458,206.363647 553.049500,209.519043
z"/>
<path fill="#5F41B2" opacity="1.000000" stroke="none"
	d="
M40.571140,158.999939
	C40.571186,126.046806 40.571186,93.593658 40.571186,60.526463
	C51.230999,60.526463 61.508862,60.452053 71.785210,60.544716
	C85.594688,60.669235 99.406494,60.790668 113.210884,61.156151
	C128.569016,61.562767 143.220123,72.056503 146.247162,85.621078
	C149.725861,101.209648 148.866287,113.943665 133.124771,125.246185
	C135.411972,127.214714 137.854385,128.858490 139.719681,131.004013
	C146.678146,139.007828 148.304031,148.388046 147.470901,158.813873
	C146.593414,169.794861 141.426331,177.717468 132.877487,184.020401
	C126.301422,188.868820 118.649391,190.399094 110.866684,190.531128
	C89.893578,190.886902 68.912277,190.760193 47.934231,190.823227
	C45.805088,190.829620 43.675911,190.824081 40.571095,190.824081
	C40.571095,180.595062 40.571095,170.047501 40.571140,158.999939
M74.642593,110.873573
	C75.571129,111.555580 76.501366,112.830177 77.427948,112.827515
	C86.268456,112.802208 95.117287,112.745323 103.945366,112.318153
	C110.146484,112.018097 114.005936,107.838135 113.555916,102.662453
	C112.911552,95.251793 109.748085,92.332573 102.710693,92.320793
	C94.627579,92.307251 86.542343,92.193367 78.463165,91.951584
	C75.770119,91.870995 74.465813,92.502495 74.585777,95.506714
	C74.778122,100.323395 74.636299,105.153412 74.642593,110.873573
M98.641121,138.822296
	C91.800087,138.843536 84.951874,138.711044 78.124763,139.030182
	C76.920090,139.086487 74.874550,140.971771 74.803711,142.111069
	C74.456726,147.691956 74.646385,153.306213 74.646385,159.209900
	C84.983849,159.209900 94.905609,159.450623 104.807861,159.115234
	C110.320305,158.928513 112.990479,155.058456 113.297356,149.830078
	C113.535606,145.771011 112.633308,141.794556 108.223373,140.287247
	C105.482353,139.350388 102.446594,139.275787 98.641121,138.822296
z"/>
<path fill="#5F41B2" opacity="1.000000" stroke="none"
	d="
M455.512939,158.025421
	C455.538208,167.628708 455.478210,176.738815 455.524323,185.848389
	C455.542084,189.357620 455.499054,191.698914 450.439636,191.054535
	C444.621399,190.313507 438.606812,191.227432 432.680450,191.160919
	C430.621521,191.137817 427.969696,191.722458 427.176971,188.359589
	C427.061798,187.871033 423.962189,187.511124 422.551758,187.993225
	C410.695374,192.045959 398.615448,192.385406 387.033569,188.127319
	C369.420258,181.651733 358.085358,168.777283 354.626221,150.218307
	C351.276886,132.248459 357.617584,117.239685 371.450745,105.489311
	C386.150726,93.002663 402.920807,90.599464 421.117950,95.900833
	C423.385376,96.561401 425.763031,98.097397 427.281403,94.574501
	C427.496460,94.075539 429.313599,94.160423 430.389893,94.156288
	C438.496674,94.125084 446.603668,94.139259 455.470001,94.139259
	C455.470001,115.174217 455.470001,136.353119 455.512939,158.025421
M411.515320,120.457054
	C395.615051,116.751480 384.251129,125.822060 382.143463,138.039490
	C379.660278,152.433716 390.916687,166.373032 407.247284,164.528503
	C415.189178,163.631454 425.198822,155.631119 426.424622,148.821487
	C428.920410,134.956543 425.036774,127.213737 411.515320,120.457054
z"/>
<path fill="#5F41B2" opacity="1.000000" stroke="none"
	d="
M260.595001,144.801804
	C260.387604,146.888367 260.226746,148.529251 260.016571,150.163788
	C259.690399,152.700623 258.965759,153.799591 255.783463,153.050644
	C252.305420,152.232071 248.512573,152.702133 244.856796,152.696289
	C229.023880,152.671021 213.190887,152.666580 197.357971,152.686615
	C195.607529,152.688828 193.857330,152.895920 191.982498,153.015961
	C193.807129,159.398071 202.405289,164.706345 209.454056,164.700470
	C215.515121,164.695419 220.772507,162.817947 225.607910,159.286316
	C226.577499,158.578156 228.011932,158.207108 229.236908,158.195541
	C238.564957,158.107468 247.894241,158.147293 257.755829,158.147293
	C253.710800,168.168930 247.679596,176.367798 238.920151,181.952515
	C221.016235,193.367462 201.975464,193.868851 183.840378,183.471695
	C169.499649,175.249924 159.666550,159.512756 160.818924,139.150818
	C162.347626,112.139442 187.636093,93.355881 211.209183,93.965591
	C238.428375,94.669594 261.404999,115.951813 260.595001,144.801804
M202.525940,132.618423
	C211.869476,132.618423 221.213028,132.618423 230.877136,132.618423
	C225.382797,122.274979 216.503983,119.294563 206.222672,120.602646
	C199.223175,121.493187 193.580780,125.367149 190.792679,132.619064
	C194.641510,132.619064 198.091736,132.619064 202.525940,132.618423
z"/>
<path fill="#5F41B2" opacity="1.000000" stroke="none"
	d="
M319.855591,78.730103
	C319.853912,82.562378 319.857941,85.926834 319.849915,89.291260
	C319.842468,92.406136 319.730194,94.163292 324.490997,93.614235
	C331.581421,92.796509 338.907013,94.017952 346.415558,94.385544
	C346.415558,101.655884 346.415558,109.059837 346.415558,117.107071
	C338.003174,117.107071 329.656677,117.107071 319.863220,117.107071
	C319.863220,122.825020 319.811554,127.961082 319.873199,133.095795
	C320.038910,146.895584 320.268005,160.694595 320.439331,174.494324
	C320.496460,179.094650 320.570312,183.701553 320.357971,188.292572
	C320.317017,189.177582 319.089447,190.582794 318.217529,190.750412
	C315.157745,191.338608 312.004425,191.825394 308.904724,191.734192
	C303.704895,191.581192 298.518951,190.954803 292.663757,190.472992
	C292.663757,166.675125 292.663757,142.331924 292.663757,117.465576
	C285.940796,117.465576 279.832245,117.445648 273.723877,117.470406
	C265.264496,117.504692 265.141174,117.517967 265.213074,109.562126
	C265.257599,104.630989 265.745575,99.703857 266.089386,93.838867
	C274.274475,93.838867 283.232391,93.838867 292.632263,93.838867
	C292.632263,82.204628 292.632263,71.446777 292.632263,60.098846
	C301.847076,60.098846 310.605865,60.098846 319.856049,60.098846
	C319.856049,66.371674 319.856049,72.316978 319.855591,78.730103
z"/>
<path fill="#5F41B2
" opacity="1.000000" stroke="none"
	d="
M552.611450,209.512695
	C538.944458,206.363647 538.770020,201.346848 538.535461,191.330505
	C538.083557,172.036270 538.072510,152.717117 538.489197,133.421463
	C538.867188,115.916702 527.033325,105.265373 510.199493,104.783150
	C498.535492,104.449028 498.539948,104.596924 498.565094,116.354073
	C498.582886,124.680664 498.665192,133.008713 498.538422,141.333374
	C498.470947,145.764587 500.223877,147.722504 504.793182,147.465347
	C509.269653,147.213394 513.774780,147.522842 518.263123,147.412857
	C522.207764,147.316177 524.833069,149.372620 525.420166,152.876541
	C526.039795,156.574509 523.324463,159.094894 519.863892,159.136749
	C511.873444,159.233337 503.744446,159.475418 495.924103,158.158844
	C490.255493,157.204544 487.507874,151.888000 487.431366,146.136734
	C487.249725,132.483963 487.283020,118.825356 487.463440,105.172203
	C487.535522,99.716171 493.119537,93.677109 498.807037,93.581726
	C508.011444,93.427361 517.359436,92.166245 526.278381,96.216278
	C539.959717,102.428894 548.730896,112.460945 549.552490,127.689110
	C550.316772,141.853607 549.756592,156.086990 549.893372,170.288956
	C549.963257,177.553711 550.615967,184.827301 550.371643,192.075546
	C550.208984,196.902786 552.958496,197.803818 556.482239,197.812042
	C565.927734,197.834061 575.380371,197.326706 584.816956,197.560501
	C589.312561,197.671875 590.866028,195.584824 591.035217,191.799957
	C591.228394,187.478271 591.211060,183.137268 591.056519,178.812836
	C590.915222,174.858505 592.637756,173.007721 596.564758,172.963058
	C600.481995,172.918549 602.135986,174.690964 602.010742,178.660004
	C601.815369,184.852310 602.268616,191.079178 601.818604,197.245544
	C601.327820,203.969879 595.332214,209.439240 588.479492,209.544922
	C576.672424,209.726990 564.859802,209.547058 552.611450,209.512695
z"/>
<path fill="#5F41B2" opacity="1.000000" stroke="none"
	d="
M587.091553,43.858723
	C598.045410,44.632469 601.655884,48.069183 601.777039,58.902985
	C601.978699,76.926529 601.758972,94.954483 601.889099,112.979340
	C601.926819,118.197502 601.819092,123.593033 603.054688,128.591721
	C606.208557,141.351334 615.005798,146.410385 628.818298,148.063980
	C641.475037,149.579208 642.253601,148.376755 642.397827,135.823074
	C642.487427,128.028061 642.744385,120.234589 642.968994,112.441650
	C643.098816,107.937637 640.928284,105.629662 636.345764,105.606438
	C631.524780,105.582001 626.703430,105.604576 621.882263,105.617630
	C617.870239,105.628494 615.206970,103.484505 614.562988,99.776360
	C613.922546,96.088692 617.357300,93.364670 622.068481,93.469810
	C629.350098,93.632324 636.692017,93.494034 643.886597,94.424637
	C650.053223,95.222290 653.522217,99.977798 653.569153,106.258934
	C653.669983,119.751198 653.648010,133.245468 653.537781,146.737778
	C653.481628,153.607864 648.279236,158.605545 639.700989,159.466110
	C629.308228,160.508698 618.826782,159.764114 609.647827,154.549606
	C598.141174,148.012772 590.893555,137.847260 590.581787,124.251793
	C590.119751,104.106010 590.395996,83.943291 590.358459,63.787777
	C590.343628,55.830219 589.911865,55.565002 581.965820,55.541721
	C574.378662,55.519489 566.784973,55.264568 559.208313,54.851345
	C552.023071,54.459469 550.480408,55.902283 550.503540,63.144894
	C550.517212,67.432365 550.535767,71.818878 549.640991,75.964211
	C549.252197,77.765404 546.651550,80.170479 544.909973,80.296967
	C543.136414,80.425789 539.652039,78.190193 539.563171,76.818367
	C539.057373,69.014931 538.777588,61.101601 539.580322,53.345646
	C540.035583,48.947388 543.101807,45.167084 549.060913,44.280403
	C562.287354,44.126537 574.689453,43.992630 587.091553,43.858723
z"/>
<path fill="none" opacity="1.000000" stroke="none"
	d="
M586.812866,43.531288
	C574.689453,43.992630 562.287354,44.126537 549.408875,44.193790
	C549.942261,43.760612 550.951599,43.077522 551.961914,43.075996
	C563.485901,43.058582 575.010071,43.145096 586.812866,43.531288
z"/>
<path fill="none" opacity="1.000000" stroke="none"
	d="
M74.639145,110.425690
	C74.636299,105.153412 74.778122,100.323395 74.585777,95.506714
	C74.465813,92.502495 75.770119,91.870995 78.463165,91.951584
	C86.542343,92.193367 94.627579,92.307251 102.710693,92.320793
	C109.748085,92.332573 112.911552,95.251793 113.555916,102.662453
	C114.005936,107.838135 110.146484,112.018097 103.945366,112.318153
	C95.117287,112.745323 86.268456,112.802208 77.427948,112.827515
	C76.501366,112.830177 75.571129,111.555580 74.639145,110.425690
z"/>
<path fill="none" opacity="1.000000" stroke="none"
	d="
M99.092117,138.818237
	C102.446594,139.275787 105.482353,139.350388 108.223373,140.287247
	C112.633308,141.794556 113.535606,145.771011 113.297356,149.830078
	C112.990479,155.058456 110.320305,158.928513 104.807861,159.115234
	C94.905609,159.450623 84.983849,159.209900 74.646385,159.209900
	C74.646385,153.306213 74.456726,147.691956 74.803711,142.111069
	C74.874550,140.971771 76.920090,139.086487 78.124763,139.030182
	C84.951874,138.711044 91.800087,138.843536 99.092117,138.818237
z"/>
<path fill="none" opacity="1.000000" stroke="none"
	d="
M411.909607,120.562943
	C425.036774,127.213737 428.920410,134.956543 426.424622,148.821487
	C425.198822,155.631119 415.189178,163.631454 407.247284,164.528503
	C390.916687,166.373032 379.660278,152.433716 382.143463,138.039490
	C384.251129,125.822060 395.615051,116.751480 411.909607,120.562943
z"/>
<path fill="none" opacity="1.000000" stroke="none"
	d="
M202.033936,132.618744
	C198.091736,132.619064 194.641510,132.619064 190.792679,132.619064
	C193.580780,125.367149 199.223175,121.493187 206.222672,120.602646
	C216.503983,119.294563 225.382797,122.274979 230.877136,132.618423
	C221.213028,132.618423 211.869476,132.618423 202.033936,132.618744
z"/>
</svg>
