<svg width="25" height="25" viewBox="0 0 25 25" fill="none" xmlns="http://www.w3.org/2000/svg">
<g id="Symbols">
<mask id="mask0_1202_60" style="mask-type:alpha" maskUnits="userSpaceOnUse" x="0" y="0" width="25" height="25">
<rect id="Bounding box" x="0.5" y="0.5" width="24" height="24" fill="#D9D9D9"/>
</mask>
<g mask="url(#mask0_1202_60)">
<path id="edit" d="M5.65376 19.5H6.89028L16.15 10.2404L14.9134 9.00381L5.65376 18.2635V19.5ZM19.3576 9.15576L15.9826 5.81158L17.2865 4.50776C17.5801 4.21417 17.9371 4.06738 18.3576 4.06738C18.7781 4.06738 19.1352 4.21417 19.4287 4.50776L20.646 5.72503C20.9396 6.01862 21.0915 6.37053 21.1018 6.78078C21.112 7.19103 20.9704 7.54295 20.6768 7.83653L19.3576 9.15576ZM18.273 10.2557L7.52873 21H4.15381V17.625L14.898 6.88078L18.273 10.2557Z" fill="#474D48"/>
</g>
</g>
</svg>
