<svg width="25" height="24" viewBox="0 0 25 24" fill="none" xmlns="http://www.w3.org/2000/svg">
<g id="inventory_2">
<mask id="mask0_3388_3440" style="mask-type:alpha" maskUnits="userSpaceOnUse" x="0" y="0" width="25" height="24">
<rect id="Bounding box" x="0.25" width="24" height="24" fill="#D9D9D9"/>
</mask>
<g mask="url(#mask0_3388_3440)">
<path id="inventory_2_2" d="M5.5577 21.5C5.05898 21.5 4.63303 21.3233 4.27983 20.9701C3.92661 20.6169 3.75 20.191 3.75 19.6923V8.4942C3.45642 8.34292 3.21636 8.12785 3.02983 7.849C2.84328 7.57015 2.75 7.24868 2.75 6.88458V4.3077C2.75 3.80898 2.92661 3.38302 3.27983 3.02982C3.63303 2.67661 4.05898 2.5 4.5577 2.5H19.9423C20.441 2.5 20.8669 2.67661 21.2201 3.02982C21.5733 3.38302 21.75 3.80898 21.75 4.3077V6.88458C21.75 7.24868 21.6567 7.57015 21.4701 7.849C21.2836 8.12785 21.0435 8.34292 20.75 8.4942V19.6923C20.75 20.191 20.5733 20.6169 20.2201 20.9701C19.8669 21.3233 19.441 21.5 18.9423 21.5H5.5577ZM5.24998 8.69225V19.6442C5.24998 19.7467 5.28683 19.8317 5.36055 19.899C5.43428 19.9663 5.52564 20 5.63463 20H18.9423C19.032 20 19.1057 19.9711 19.1634 19.9134C19.2211 19.8557 19.25 19.782 19.25 19.6923V8.69225H5.24998ZM4.5577 7.1923H19.9423C20.032 7.1923 20.1057 7.16345 20.1634 7.10575C20.2211 7.04805 20.25 6.97433 20.25 6.88458V4.3077C20.25 4.21795 20.2211 4.14423 20.1634 4.08653C20.1057 4.02883 20.032 3.99998 19.9423 3.99998H4.5577C4.46795 3.99998 4.39423 4.02883 4.33653 4.08653C4.27883 4.14423 4.24998 4.21795 4.24998 4.3077V6.88458C4.24998 6.97433 4.27883 7.04805 4.33653 7.10575C4.39423 7.16345 4.46795 7.1923 4.5577 7.1923ZM9.4423 13.4326H15.0577V12H9.4423V13.4326Z" fill="#990000"/>
</g>
</g>
</svg>
