<svg width="24" height="25" viewBox="0 0 24 25" fill="none" xmlns="http://www.w3.org/2000/svg">
<g id="Symbols">
<mask id="mask0_1351_1173" style="mask-type:alpha" maskUnits="userSpaceOnUse" x="0" y="0" width="24" height="25">
<rect id="Bounding box" y="0.13501" width="24" height="24" fill="#5F41B2"/>
</mask>
<g mask="url(#mask0_1351_1173)">
<path id="visibility_off" d="M15.7731 13.108L14.6501 11.9849C14.8001 11.1567 14.5639 10.4122 13.9414 9.75128C13.319 9.09038 12.5552 8.83493 11.6501 8.98493L10.527 7.86188C10.7527 7.7606 10.9841 7.68464 11.2212 7.63401C11.4584 7.58336 11.718 7.55803 12.0001 7.55803C13.1347 7.55803 14.0978 7.95386 14.8895 8.74553C15.6811 9.5372 16.077 10.5003 16.077 11.6349C16.077 11.917 16.0517 12.1798 16.001 12.4234C15.9504 12.667 15.8744 12.8952 15.7731 13.108ZM18.9539 16.2195L17.8501 15.1849C18.4834 14.7016 19.0459 14.1724 19.5376 13.5974C20.0292 13.0224 20.4501 12.3683 20.8001 11.6349C19.9667 9.9516 18.7709 8.6141 17.2126 7.62243C15.6542 6.63076 13.9167 6.13493 12.0001 6.13493C11.5167 6.13493 11.0417 6.16826 10.5751 6.23493C10.1084 6.3016 9.65007 6.4016 9.20007 6.53493L8.03472 5.36958C8.66677 5.1183 9.31228 4.93304 9.97125 4.81381C10.6302 4.69457 11.3065 4.63495 12.0001 4.63495C14.3437 4.63495 16.4571 5.28111 18.3404 6.57341C20.2238 7.86572 21.5975 9.5529 22.4616 11.6349C22.0911 12.5285 21.6125 13.3625 21.026 14.1368C20.4395 14.9112 19.7488 15.6054 18.9539 16.2195ZM19.7616 22.0041L15.7155 17.9887C15.2027 18.1785 14.6344 18.3336 14.0107 18.4541C13.3869 18.5746 12.7167 18.6349 12.0001 18.6349C9.65009 18.6349 7.53664 17.9888 5.65972 16.6965C3.78281 15.4041 2.40909 13.717 1.53857 11.6349C1.90781 10.7516 2.38473 9.92756 2.96935 9.16281C3.55397 8.39807 4.19756 7.73494 4.90012 7.17341L2.13087 4.37341L3.18472 3.31958L20.8154 20.9503L19.7616 22.0041ZM5.95395 8.2272C5.42575 8.64772 4.91197 9.15318 4.4126 9.74358C3.91323 10.334 3.50906 10.9644 3.20007 11.6349C4.03341 13.3183 5.22924 14.6558 6.78757 15.6474C8.34591 16.6391 10.0834 17.1349 12.0001 17.1349C12.4552 17.1349 12.9084 17.0965 13.3597 17.0195C13.811 16.9426 14.1937 16.8631 14.5078 16.7811L13.2424 15.4849C13.0719 15.5541 12.8744 15.6092 12.6501 15.6503C12.4257 15.6913 12.2091 15.7118 12.0001 15.7118C10.8655 15.7118 9.90234 15.316 9.11067 14.5243C8.31901 13.7327 7.92317 12.7695 7.92317 11.6349C7.92317 11.4324 7.94369 11.2205 7.98472 10.9994C8.02576 10.7782 8.08088 10.5759 8.1501 10.3926L5.95395 8.2272Z" fill="#5F41B2"/>
</g>
</g>
</svg>
